<svg width="30" height="30" viewBox="0 0 30 30" fill="none" xmlns="http://www.w3.org/2000/svg">
<rect y="0.120117" width="29.6295" height="29.6295" rx="8.23042" fill="#6E6AF4"/>
<g clip-path="url(#clip0_5460_17766)">
<path d="M14.1577 21.2976H12.4019V23.4924H14.1577V21.2976Z" fill="white"/>
<path d="M17.2312 21.2976H15.4753V23.4924H17.2312V21.2976Z" fill="white"/>
<path d="M11.0857 11.6414H9.32983V16.9088H11.0857V11.6414Z" fill="white"/>
<path d="M14.1577 11.6414H12.4019V19.9815H14.1577V11.6414Z" fill="white"/>
<path d="M17.2312 11.6414H15.4753V19.9815H17.2312V11.6414Z" fill="white"/>
<path d="M20.3032 11.6414H18.5474V16.9088H20.3032V11.6414Z" fill="white"/>
<path d="M14.8159 6.8132C15.1802 6.8132 15.4743 7.1073 15.4743 7.47163C15.4743 7.83596 15.1802 8.13006 14.8159 8.13006C14.4515 8.13006 14.1574 7.83596 14.1574 7.47163C14.1574 7.1073 14.4515 6.8132 14.8159 6.8132ZM14.8159 5.05737C13.4858 5.05737 12.4016 6.14159 12.4016 7.47163C12.4016 8.80167 13.4858 9.88589 14.8159 9.88589C16.1459 9.88589 17.2301 8.80167 17.2301 7.47163C17.2301 6.14159 16.1459 5.05737 14.8159 5.05737Z" fill="white"/>
</g>
<defs>
<clipPath id="clip0_5460_17766">
<rect width="19.753" height="19.753" fill="white" transform="translate(4.93823 5.05957)"/>
</clipPath>
</defs>
</svg>
