<svg width="166" height="42" viewBox="0 0 166 42" fill="none" xmlns="http://www.w3.org/2000/svg"><path d="M0.779531 26.6514L0.769531 8.94141H4.64953L4.65953 26.6614L0.779531 26.6514Z" fill="#fff"></path><path d="M5.44 2.75953C5.44 4.30953 4.24 5.45953 2.7 5.45953C1.15 5.45953 0 4.30953 0 2.75953C0 1.21953 1.15 0.0195312 2.7 0.0195312C4.23 0.0195313 5.44 1.21953 5.44 2.75953Z" fill="#fff"></path><path d="M122.13 12.4514V26.6514H118.27V8.94141H128.92V12.4514H122.13Z" fill="#fff"></path><path d="M21.6214 11.0795V0.0195312H25.4914V26.6495H21.6214V24.5195C20.3814 26.0895 18.5914 27.1095 16.0514 27.1095C11.0914 27.1095 7.19141 23.2095 7.19141 17.7895C7.19141 12.3695 11.0914 8.46953 16.0514 8.46953C18.5814 8.46953 20.3814 9.50953 21.6214 11.0795ZM11.1714 17.7895C11.1714 20.8995 13.1914 23.4695 16.5114 23.4695C19.6914 23.4695 21.8514 21.0295 21.8514 17.7895C21.8514 14.5495 19.6914 12.1095 16.5114 12.1095C13.1814 12.1195 11.1714 14.6895 11.1714 17.7895Z" fill="#fff"></path><path d="M45.3819 17.7805C45.3819 18.2805 45.3619 18.7805 45.3119 19.2205H32.2119C32.7119 22.4005 34.9819 23.7305 37.4819 23.7305C39.2619 23.7305 41.1219 23.0505 42.6019 21.8605L44.5219 24.6205C42.3619 26.4705 39.9119 27.1205 37.2319 27.1205C31.9019 27.1205 28.1719 23.4205 28.1719 17.8005C28.1719 12.2505 31.7819 8.48049 36.9919 8.48049C41.9419 8.47049 45.3819 12.2505 45.3819 17.7805ZM32.2319 16.2805H41.4219C41.0019 13.5305 39.3919 11.9205 36.9319 11.9205C34.1719 11.9105 32.6219 13.6905 32.2319 16.2805Z" fill="#fff"></path><path d="M62.1605 26.6488V24.5187C60.9205 26.0887 59.1305 27.1087 56.5905 27.1087C51.6305 27.1087 47.7305 23.2088 47.7305 17.7888C47.7305 12.3688 51.6305 8.46875 56.5905 8.46875C59.1205 8.46875 60.9205 9.50875 62.1605 11.0787V8.93875H66.0305V26.6587H62.1605V26.6488ZM51.7105 17.7888C51.7105 20.8988 53.7305 23.4687 57.0505 23.4687C60.2305 23.4687 62.3905 21.0288 62.3905 17.7888C62.3905 14.5488 60.2305 12.1087 57.0505 12.1087C53.7305 12.1187 51.7105 14.6888 51.7105 17.7888Z" fill="#fff"></path><path d="M115.54 17.7888C115.54 23.0988 111.47 27.1087 106 27.1087C100.53 27.1087 96.4805 23.0988 96.4805 17.7888C96.4805 12.4788 100.53 8.46875 106 8.46875C111.47 8.46875 115.54 12.4888 115.54 17.7888ZM100.45 17.7888C100.45 21.1388 102.84 23.4687 106 23.4687C109.16 23.4687 111.57 21.1388 111.57 17.7888C111.57 14.4388 109.17 12.1087 106 12.1087C102.83 12.1087 100.45 14.4488 100.45 17.7888Z" fill="#fff"></path><path d="M137.74 15.6695L143.58 8.93953H148.44L141.02 17.2795L148.51 26.6595H143.61L137.71 19.1895H135.79V26.6595H131.91V0.0195312H135.79V15.6695H137.74Z" fill="#fff"></path><path d="M158.03 11.8583C155.9 11.8583 154.68 12.7083 154.68 13.9683C154.68 15.2283 155.97 15.5583 157.6 15.7983L159.43 16.0783C163.3 16.6483 165.59 18.2783 165.59 21.3083C165.59 24.7083 162.63 27.0983 157.53 27.0983C155.72 27.0983 152.5 26.7483 149.93 24.8183L151.72 21.9183C152.98 22.8983 154.7 23.7283 157.56 23.7283C160.22 23.7283 161.59 22.8983 161.59 21.5683C161.59 20.5483 160.65 19.9083 158.52 19.6083L156.67 19.3683C152.73 18.8283 150.66 17.0383 150.66 14.1683C150.66 10.6683 153.47 8.48828 157.98 8.48828C160.77 8.48828 163.31 9.16828 165.15 10.3583L163.49 13.3683C162.43 12.7283 160.25 11.8583 158.03 11.8583Z" fill="#fff"></path><path d="M81.6798 41.6095C75.0098 41.6095 69.5898 36.1895 69.5898 29.5195H73.4698C73.4698 34.0395 77.1498 37.7295 81.6798 37.7295C86.2098 37.7295 89.8898 34.0495 89.8898 29.5195H93.7698C93.7698 36.1895 88.3498 41.6095 81.6798 41.6095Z" fill="#fff"></path><path d="M73.5016 0H69.6016V26.63H73.5016V0Z" fill="#fff"></path><path d="M80.2516 8.94141H76.3516V26.6414H80.2516V8.94141Z" fill="#fff"></path><path d="M86.9898 8.94141H83.0898V26.6414H86.9898V8.94141Z" fill="#fff"></path><path d="M93.7398 8.94141H89.8398V26.6414H93.7398V8.94141Z" fill="#fff"></path></svg>
