<svg width="30" height="30" viewBox="0 0 30 30" fill="none" xmlns="http://www.w3.org/2000/svg">
  <path d="M0 8.34907C0 3.80354 3.68488 0.118652 8.23042 0.118652H21.3991C25.9446 0.118652 29.6295 3.80354 29.6295 8.34907V21.5177C29.6295 26.0633 25.9446 29.7482 21.3991 29.7482H8.23042C3.68488 29.7482 0 26.0633 0 21.5177V8.34907Z" fill="#16192C"/>
  <g clip-path="url(#clip0)">
    <path d="M14.1567 21.2983H12.4009V23.4931H14.1567V21.2983Z" fill="white"/>
    <path d="M17.2295 21.2983H15.4736V23.4931H17.2295V21.2983Z" fill="white"/>
    <path d="M11.0839 11.6411H9.32812V16.9086H11.0839V11.6411Z" fill="white"/>
    <path d="M14.1567 11.6411H12.4009V19.9813H14.1567V11.6411Z" fill="white"/>
    <path d="M17.2295 11.6411H15.4736V19.9813H17.2295V11.6411Z" fill="white"/>
    <path d="M20.3022 11.6411H18.5464V16.9086H20.3022V11.6411Z" fill="white"/>
    <path d="M14.8151 6.81271C15.1795 6.81271 15.4736 7.10681 15.4736 7.47114C15.4736 7.83547 15.1795 8.12957 14.8151 8.12957C14.4508 8.12957 14.1567 7.83547 14.1567 7.47114C14.1567 7.10681 14.4508 6.81271 14.8151 6.81271ZM14.8151 5.05688C13.4851 5.05688 12.4009 6.14111 12.4009 7.47114C12.4009 8.80118 13.4851 9.8854 14.8151 9.8854C16.1452 9.8854 17.2294 8.80118 17.2294 7.47114C17.2294 6.14111 16.1452 5.05688 14.8151 5.05688Z" fill="white"/>
  </g>
  <defs>
    <clipPath id="clip0">
      <rect width="19.753" height="19.753" fill="white" transform="translate(4.93848 5.05688)"/>
    </clipPath>
  </defs>
</svg>
