<svg width="16" height="17" viewBox="0 0 16 17" fill="none" xmlns="http://www.w3.org/2000/svg">
  <mask id="mask0" mask-type="alpha" maskUnits="userSpaceOnUse" x="0" y="0" width="16" height="17">
    <path fill-rule="evenodd" clip-rule="evenodd" d="M14 1.5H2C1.44772 1.5 1 1.94772 1 2.5V14.5C1 15.0523 1.44772 15.5 2 15.5H14C14.5523 15.5 15 15.0523 15 14.5V2.5C15 1.94772 14.5523 1.5 14 1.5ZM2 0.5C0.895431 0.5 0 1.39543 0 2.5V14.5C0 15.6046 0.895431 16.5 2 16.5H14C15.1046 16.5 16 15.6046 16 14.5V2.5C16 1.39543 15.1046 0.5 14 0.5H2Z" fill="black"/>
    <path fill-rule="evenodd" clip-rule="evenodd" d="M6.85355 5.14645C7.04882 5.34171 7.04882 5.65829 6.85355 5.85355L4.20711 8.5L6.85355 11.1464C7.04882 11.3417 7.04882 11.6583 6.85355 11.8536C6.65829 12.0488 6.34171 12.0488 6.14645 11.8536L3.14645 8.85355C2.95118 8.65829 2.95118 8.34171 3.14645 8.14645L6.14645 5.14645C6.34171 4.95118 6.65829 4.95118 6.85355 5.14645Z" fill="black"/>
    <path fill-rule="evenodd" clip-rule="evenodd" d="M9.14645 5.14645C8.95118 5.34171 8.95118 5.65829 9.14645 5.85355L11.7929 8.5L9.14645 11.1464C8.95118 11.3417 8.95118 11.6583 9.14645 11.8536C9.34171 12.0488 9.65829 12.0488 9.85355 11.8536L12.8536 8.85355C13.0488 8.65829 13.0488 8.34171 12.8536 8.14645L9.85355 5.14645C9.65829 4.95118 9.34171 4.95118 9.14645 5.14645Z" fill="black"/>
  </mask>
  <g mask="url(#mask0)">
    <rect y="0.5" width="16" height="16" fill="#A0AEC0"/>
  </g>
</svg>
